<svg id="Capa_1" enable-background="new 0 0 510.548 510.548" height="512" viewBox="0 0 510.548 510.548" width="512" xmlns="http://www.w3.org/2000/svg"><g><g><g><path d="m478.058 172.262h-33.181c-4.142 0-7.5-3.358-7.5-7.5s3.358-7.5 7.5-7.5h33.181c4.142 0 7.5 3.358 7.5 7.5s-3.358 7.5-7.5 7.5z" fill="#8c818f"/></g></g><g><g><path d="m448.662 370.029h-421.584c-10.812 0-19.577-8.765-19.577-19.577v-187.889c0-10.812 8.765-19.577 19.577-19.577h399.316c8.754 0 16.279 5.97 18.387 14.3.155.614-6.297 3.482-6.202 4.12l8.548 11.005 15.783 106.141v77.228c0 7.87-6.379 14.249-14.248 14.249z" fill="#f7f7f7"/></g></g><g><g><path d="m442.02 160.085c-.095-.638 2.917-2.184 2.761-2.798-2.109-8.33-9.633-14.3-18.387-14.3h-30c9.399 0 17.381 6.883 18.764 16.18l17.753 119.387v77.228c0 7.869-6.379 14.249-14.249 14.249h30c7.869 0 14.249-6.379 14.249-14.249v-77.228l-15.783-106.141-1.138-7.65z" fill="#e8e8e8"/></g></g><path d="m439.976 271.39-7.968-12.025c-.088-.133-.187-.256-.282-.382l6.814-6.814c2.929-2.929 2.929-7.677 0-10.606s-7.678-2.929-10.606 0l-23.592 23.592c-2.929 2.929-2.929 7.677 0 10.606 1.464 1.465 3.384 2.197 5.303 2.197s3.839-.732 5.303-2.197l5.973-5.973 6.551 9.887c1.443 2.178 3.828 3.358 6.259 3.358 1.422 0 2.861-.404 4.136-1.249 3.453-2.288 4.397-6.941 2.109-10.394z" fill="#8c818f"/><g><g><path d="m420.913 301.386v68.643h27.749c7.869 0 14.249-6.379 14.249-14.249v-77.228l-2.481-16.684c-21.825.001-39.517 17.693-39.517 39.518z" fill="#8c818f"/></g></g><g><g><path d="m382.545 292.552h-28.22v-103.119h8.363c10.967 0 19.857 8.89 19.857 19.857z" fill="#8c818f"/></g></g><g><g><path d="m257.932 143.107h-62.375l20.569-46.875c1.849-4.214 6.016-6.936 10.618-6.936 4.602 0 8.769 2.722 10.618 6.936z" fill="#d9d9d9"/></g></g><g><g><path d="" style="fill:none;stroke:#000;stroke-width:15;stroke-linecap:round;stroke-linejoin:round;stroke-miterlimit:10"/></g></g><g><g><path d="m87.294 253.853c-4.142 0-7.5-3.822-7.5-8.536v-82.907c0-4.714 3.358-8.536 7.5-8.536s7.5 3.822 7.5 8.536v82.908c0 4.714-3.358 8.535-7.5 8.535z" fill="#e8e8e8"/></g></g><g><g><path d="m176.305 253.853c-4.142 0-7.5-3.822-7.5-8.536v-82.907c0-4.714 3.358-8.536 7.5-8.536s7.5 3.822 7.5 8.536v82.908c0 4.714-3.358 8.535-7.5 8.535z" fill="#e8e8e8"/></g></g><g><g><path d="m265.315 252.127c-4.142 0-7.5-3.822-7.5-8.536v-82.908c0-4.714 3.358-8.536 7.5-8.536s7.5 3.822 7.5 8.536v82.908c0 4.714-3.358 8.536-7.5 8.536z" fill="#e8e8e8"/></g></g><g><g><path d="m354.325 323.491c-4.142 0-7.5-3.522-7.5-7.867v-151.517c0-4.345 3.358-7.867 7.5-7.867s7.5 3.522 7.5 7.867v151.518c0 4.344-3.358 7.866-7.5 7.866z" fill="#e8e8e8"/></g></g><path d="m498.008 162.458-17.587-5.837c-2.286-.758-4.797-.373-6.751 1.037s-3.111 3.672-3.111 6.081v59.251c0 11.025 8.97 19.995 19.995 19.995s19.995-8.97 19.995-19.995v-43.159c-.001-7.902-5.041-14.884-12.541-17.373z" fill="#f7e365"/><g><g><path d="m445.99 164.762-.832-5.596c-1.382-9.297-9.364-16.18-18.764-16.18h-399.316c-10.812 0-19.577 8.765-19.577 19.577v2.199z" fill="#8c818f"/></g></g><g><g><path d="m7.5 243.363v107.089c0 10.812 8.765 19.577 19.577 19.577h421.584c7.869 0 14.249-6.379 14.249-14.249v-22.248l-29.784-23.534c-47.108-37.223-105.393-66.635-165.433-66.635z" fill="#8c818f"/></g></g><g><g><path d="m433.127 309.998c-47.108-37.223-105.393-66.635-165.433-66.635h-30c60.04 0 118.325 29.412 165.433 66.635l12.327 9.741c11.025 8.712 17.456 21.99 17.456 36.042 0 7.869-6.379 14.249-14.249 14.249h30c7.869 0 14.249-6.379 14.249-14.249v-22.248z" fill="#766d78"/></g></g><g><g><path d="m360.393 340.711-16.833-6.769c-83.861-33.723-175.808-53.927-270.199-59.373l-65.86-3.8v24.57l10 16.379-10 15.398v27.874c0 8.306 8.765 15.039 19.577 15.039h333.315z" fill="#f5de46"/></g></g><g><g><path d="m343.56 333.942c-83.861-33.723-175.808-53.927-270.199-59.373l-65.86-3.8v30l65.86 3.8c94.391 5.446 186.338 25.65 270.199 59.373l15.137 6.087h1.696v-29.318z" fill="#f3d332"/></g></g><g><g><circle cx="360.393" cy="360.971" fill="#544f56" r="49.252"/></g></g><g><g><circle cx="360.393" cy="360.971" fill="#766d78" r="16.88"/></g></g><g><g><circle cx="98.588" cy="360.971" fill="#544f56" r="49.252"/></g></g><g><g><circle cx="98.588" cy="360.971" fill="#766d78" r="16.88"/></g></g><g><g><path d="m26.412 327.116h-18.912v-31.777h18.912c3.557 0 6.441 2.884 6.441 6.441v18.895c0 3.558-2.884 6.441-6.441 6.441z" fill="#df6937"/></g></g><g><g><path d="m502.389 421.252h-494.889c-4.142 0-7.5-3.358-7.5-7.5s3.358-7.5 7.5-7.5h494.889c4.142 0 7.5 3.358 7.5 7.5s-3.358 7.5-7.5 7.5z" fill="#d9d9d9"/></g></g></g></svg>